<mxfile>
    <diagram id="jvFCzQc2yNuLmswQvcY6" name="Page-1">
        <mxGraphModel dx="4647" dy="2660" grid="1" gridSize="10" guides="0" tooltips="1" connect="1" arrows="1" fold="1" page="1" pageScale="1" pageWidth="827" pageHeight="1169" math="0" shadow="0">
            <root>
                <mxCell id="0"/>
                <mxCell id="1" parent="0"/>
                <mxCell id="82" value="Docker hub /&lt;br&gt;Docker Registry" style="shape=parallelogram;perimeter=parallelogramPerimeter;whiteSpace=wrap;html=1;fixedSize=1;" parent="1" vertex="1">
                    <mxGeometry x="310" y="1447" width="210" height="60" as="geometry"/>
                </mxCell>
                <mxCell id="6" value="SideCar Proxy" style="rounded=0;whiteSpace=wrap;html=1;" parent="1" vertex="1">
                    <mxGeometry x="790" y="967" width="440" height="130" as="geometry"/>
                </mxCell>
                <mxCell id="12" value="Schema Change&amp;nbsp;" style="rounded=0;whiteSpace=wrap;html=1;" parent="1" vertex="1">
                    <mxGeometry x="790" y="1217" width="440" height="80" as="geometry"/>
                </mxCell>
                <mxCell id="13" value="App" style="rounded=0;whiteSpace=wrap;html=1;" parent="1" vertex="1">
                    <mxGeometry x="790" y="1437" width="440" height="80" as="geometry"/>
                </mxCell>
                <mxCell id="73" style="edgeStyle=orthogonalEdgeStyle;rounded=0;orthogonalLoop=1;jettySize=auto;html=1;shadow=0;fillColor=none;" parent="1" source="24" edge="1">
                    <mxGeometry relative="1" as="geometry">
                        <mxPoint x="1010" y="967" as="targetPoint"/>
                        <Array as="points">
                            <mxPoint x="1010" y="622"/>
                        </Array>
                    </mxGeometry>
                </mxCell>
                <mxCell id="24" value="API Server" style="rounded=0;whiteSpace=wrap;html=1;" parent="1" vertex="1">
                    <mxGeometry x="1738" y="587" width="250" height="70" as="geometry"/>
                </mxCell>
                <mxCell id="71" style="edgeStyle=orthogonalEdgeStyle;rounded=0;orthogonalLoop=1;jettySize=auto;html=1;shadow=0;fillColor=none;entryX=0;entryY=0.75;entryDx=0;entryDy=0;" parent="1" target="24" edge="1">
                    <mxGeometry relative="1" as="geometry">
                        <mxPoint x="1750" y="267" as="targetPoint"/>
                        <mxPoint x="1740" y="1012" as="sourcePoint"/>
                        <Array as="points">
                            <mxPoint x="1610" y="1012"/>
                            <mxPoint x="1610" y="639"/>
                        </Array>
                    </mxGeometry>
                </mxCell>
                <mxCell id="75" style="edgeStyle=orthogonalEdgeStyle;rounded=0;orthogonalLoop=1;jettySize=auto;html=1;shadow=0;fillColor=none;entryX=0.5;entryY=0;entryDx=0;entryDy=0;entryPerimeter=0;" parent="1" target="77" edge="1">
                    <mxGeometry relative="1" as="geometry">
                        <mxPoint x="1990" y="1012" as="sourcePoint"/>
                        <mxPoint x="2940" y="1347" as="targetPoint"/>
                        <Array as="points">
                            <mxPoint x="2290" y="1012"/>
                            <mxPoint x="2290" y="1167"/>
                            <mxPoint x="2725" y="1167"/>
                        </Array>
                    </mxGeometry>
                </mxCell>
                <mxCell id="79" style="edgeStyle=orthogonalEdgeStyle;rounded=0;orthogonalLoop=1;jettySize=auto;html=1;shadow=0;fillColor=none;" parent="1" target="24" edge="1">
                    <mxGeometry relative="1" as="geometry">
                        <mxPoint x="1780" y="217" as="targetPoint"/>
                        <mxPoint x="1870" y="1067" as="sourcePoint"/>
                        <Array as="points">
                            <mxPoint x="1870" y="1107"/>
                            <mxPoint x="1410" y="1107"/>
                            <mxPoint x="1410" y="497"/>
                            <mxPoint x="1780" y="497"/>
                        </Array>
                    </mxGeometry>
                </mxCell>
                <mxCell id="107" style="edgeStyle=orthogonalEdgeStyle;rounded=0;orthogonalLoop=1;jettySize=auto;html=1;shadow=0;fillColor=none;entryX=0.047;entryY=-0.006;entryDx=0;entryDy=0;entryPerimeter=0;" parent="1" target="24" edge="1">
                    <mxGeometry relative="1" as="geometry">
                        <mxPoint x="1760" y="577" as="targetPoint"/>
                        <mxPoint x="1740" y="1037" as="sourcePoint"/>
                        <Array as="points">
                            <mxPoint x="1460" y="1037"/>
                            <mxPoint x="1460" y="547"/>
                            <mxPoint x="1750" y="547"/>
                        </Array>
                    </mxGeometry>
                </mxCell>
                <mxCell id="125" style="edgeStyle=orthogonalEdgeStyle;rounded=0;orthogonalLoop=1;jettySize=auto;html=1;shadow=0;fillColor=none;exitX=0.79;exitY=1.009;exitDx=0;exitDy=0;exitPerimeter=0;" parent="1" edge="1">
                    <mxGeometry relative="1" as="geometry">
                        <mxPoint x="1137" y="1728" as="targetPoint"/>
                        <mxPoint x="1937.5" y="1067.8100000000004" as="sourcePoint"/>
                        <Array as="points">
                            <mxPoint x="1935" y="1068"/>
                            <mxPoint x="1935" y="1167"/>
                            <mxPoint x="1470" y="1167"/>
                            <mxPoint x="1470" y="1757"/>
                            <mxPoint x="1137" y="1757"/>
                        </Array>
                    </mxGeometry>
                </mxCell>
                <mxCell id="137" style="edgeStyle=orthogonalEdgeStyle;rounded=0;orthogonalLoop=1;jettySize=auto;html=1;shadow=0;fillColor=none;" parent="1" edge="1">
                    <mxGeometry relative="1" as="geometry">
                        <mxPoint x="1860" y="657" as="targetPoint"/>
                        <mxPoint x="1860" y="977" as="sourcePoint"/>
                        <Array as="points">
                            <mxPoint x="1860" y="857"/>
                            <mxPoint x="1860" y="857"/>
                        </Array>
                    </mxGeometry>
                </mxCell>
                <mxCell id="103" style="edgeStyle=orthogonalEdgeStyle;rounded=0;orthogonalLoop=1;jettySize=auto;html=1;shadow=0;fillColor=none;" parent="1" source="40" target="82" edge="1">
                    <mxGeometry relative="1" as="geometry">
                        <mxPoint x="350" y="1847" as="targetPoint"/>
                        <Array as="points">
                            <mxPoint x="1010" y="1807"/>
                            <mxPoint x="260" y="1807"/>
                            <mxPoint x="260" y="1477"/>
                        </Array>
                    </mxGeometry>
                </mxCell>
                <mxCell id="131" style="edgeStyle=orthogonalEdgeStyle;rounded=0;orthogonalLoop=1;jettySize=auto;html=1;shadow=0;fillColor=none;" parent="1" source="40" target="82" edge="1">
                    <mxGeometry relative="1" as="geometry">
                        <mxPoint x="480" y="1417" as="targetPoint"/>
                        <Array as="points">
                            <mxPoint x="1120" y="1847"/>
                            <mxPoint x="230" y="1847"/>
                            <mxPoint x="230" y="1417"/>
                            <mxPoint x="427" y="1417"/>
                        </Array>
                    </mxGeometry>
                </mxCell>
                <mxCell id="40" value="Kubelet" style="rounded=0;whiteSpace=wrap;html=1;fillColor=none;" parent="1" vertex="1">
                    <mxGeometry x="790" y="1647" width="440" height="80" as="geometry"/>
                </mxCell>
                <mxCell id="48" value="3). Apply EPF yaml&amp;nbsp; to cluster&lt;br&gt;&amp;nbsp; &amp;nbsp; dbversion&amp;nbsp; &amp;nbsp; &amp;nbsp;x --&amp;gt; y&lt;br&gt;&amp;nbsp; &amp;nbsp; &amp;nbsp;appversion&amp;nbsp; &amp;nbsp;a --&amp;gt; b&amp;nbsp;" style="text;html=1;align=center;verticalAlign=middle;resizable=0;points=[];autosize=1;" parent="1" vertex="1">
                    <mxGeometry x="1928" y="507" width="170" height="50" as="geometry"/>
                </mxCell>
                <mxCell id="50" value="4). Update EPF yaml&amp;nbsp; in the Etcd" style="text;html=1;align=center;verticalAlign=middle;resizable=0;points=[];autosize=1;" parent="1" vertex="1">
                    <mxGeometry x="2088" y="667" width="190" height="20" as="geometry"/>
                </mxCell>
                <mxCell id="51" value="Etcd" style="shape=cylinder3;whiteSpace=wrap;html=1;boundedLbl=1;backgroundOutline=1;size=15;fillColor=none;" parent="1" vertex="1">
                    <mxGeometry x="2348" y="727" width="62" height="70" as="geometry"/>
                </mxCell>
                <mxCell id="56" value="1) Watch operator &lt;br&gt;change the EPF Yaml" style="text;html=1;align=center;verticalAlign=middle;resizable=0;points=[];autosize=1;" parent="1" vertex="1">
                    <mxGeometry x="1860" y="807" width="130" height="30" as="geometry"/>
                </mxCell>
                <mxCell id="61" value="2) watch operator EPF" style="text;html=1;align=center;verticalAlign=middle;resizable=0;points=[];autosize=1;" parent="1" vertex="1">
                    <mxGeometry x="2113" y="757" width="140" height="20" as="geometry"/>
                </mxCell>
                <mxCell id="63" value="5). Operator send the request to &lt;br&gt;sidecar proxy through the API server&lt;br&gt;store the requests" style="text;html=1;align=center;verticalAlign=middle;resizable=0;points=[];autosize=1;" parent="1" vertex="1">
                    <mxGeometry x="1610" y="787" width="210" height="50" as="geometry"/>
                </mxCell>
                <mxCell id="121" style="edgeStyle=orthogonalEdgeStyle;rounded=0;orthogonalLoop=1;jettySize=auto;html=1;shadow=0;fillColor=none;" parent="1" source="65" target="12" edge="1">
                    <mxGeometry relative="1" as="geometry">
                        <Array as="points">
                            <mxPoint x="1155" y="1197"/>
                            <mxPoint x="1010" y="1197"/>
                        </Array>
                    </mxGeometry>
                </mxCell>
                <mxCell id="123" style="edgeStyle=orthogonalEdgeStyle;rounded=0;orthogonalLoop=1;jettySize=auto;html=1;shadow=0;fillColor=none;entryX=1;entryY=0.5;entryDx=0;entryDy=0;" parent="1" source="65" target="13" edge="1">
                    <mxGeometry relative="1" as="geometry">
                        <mxPoint x="1270" y="1527" as="targetPoint"/>
                        <Array as="points">
                            <mxPoint x="1270" y="1032"/>
                            <mxPoint x="1270" y="1477"/>
                        </Array>
                    </mxGeometry>
                </mxCell>
                <mxCell id="65" value="Queue" style="shape=cylinder3;whiteSpace=wrap;html=1;boundedLbl=1;backgroundOutline=1;size=15;fillColor=none;" parent="1" vertex="1">
                    <mxGeometry x="1120" y="992" width="70" height="80" as="geometry"/>
                </mxCell>
                <mxCell id="70" value="" style="endArrow=classic;html=1;shadow=0;fillColor=none;" parent="1" target="65" edge="1">
                    <mxGeometry width="50" height="50" relative="1" as="geometry">
                        <mxPoint x="1010" y="967" as="sourcePoint"/>
                        <mxPoint x="1080" y="1067" as="targetPoint"/>
                    </mxGeometry>
                </mxCell>
                <mxCell id="74" value="6) Requst send to&amp;nbsp;&lt;br&gt;Proxy Server" style="text;html=1;align=center;verticalAlign=middle;resizable=0;points=[];autosize=1;" parent="1" vertex="1">
                    <mxGeometry x="1110" y="587" width="110" height="30" as="geometry"/>
                </mxCell>
                <mxCell id="76" value="7). send request db with&lt;br&gt;&amp;nbsp;app version and db version" style="text;html=1;align=center;verticalAlign=middle;resizable=0;points=[];autosize=1;" parent="1" vertex="1">
                    <mxGeometry x="2140" y="977" width="160" height="30" as="geometry"/>
                </mxCell>
                <mxCell id="77" value="Databse" style="shape=cylinder3;whiteSpace=wrap;html=1;boundedLbl=1;backgroundOutline=1;size=15;fillColor=none;" parent="1" vertex="1">
                    <mxGeometry x="2660" y="1397" width="130" height="100" as="geometry"/>
                </mxCell>
                <mxCell id="78" value="8) Calling Stored Procedure check the database version and&lt;br&gt;appversion already in Version table. if it has then no need to&lt;br&gt;update the database else update the database(x --&amp;gt; y) and add to&amp;nbsp;&lt;br&gt;db version and app version into version table." style="text;html=1;align=center;verticalAlign=middle;resizable=0;points=[];autosize=1;" parent="1" vertex="1">
                    <mxGeometry x="2850" y="1420" width="370" height="60" as="geometry"/>
                </mxCell>
                <mxCell id="90" value="" style="endArrow=block;dashed=1;endFill=0;endSize=12;html=1;shadow=0;entryX=0.032;entryY=0.286;entryDx=0;entryDy=0;entryPerimeter=0;" parent="1" target="51" edge="1">
                    <mxGeometry width="160" relative="1" as="geometry">
                        <mxPoint x="1860" y="657" as="sourcePoint"/>
                        <mxPoint x="2338" y="717" as="targetPoint"/>
                        <Array as="points">
                            <mxPoint x="1860" y="647"/>
                            <mxPoint x="1880" y="647"/>
                            <mxPoint x="1898" y="647"/>
                            <mxPoint x="1898" y="747"/>
                            <mxPoint x="2300" y="747"/>
                        </Array>
                    </mxGeometry>
                </mxCell>
                <mxCell id="93" value="" style="endArrow=none;dashed=1;html=1;dashPattern=1 3;strokeWidth=2;shadow=0;" parent="1" target="24" edge="1">
                    <mxGeometry width="50" height="50" relative="1" as="geometry">
                        <mxPoint x="1743" y="637" as="sourcePoint"/>
                        <mxPoint x="1743" y="617" as="targetPoint"/>
                        <Array as="points">
                            <mxPoint x="1753" y="637"/>
                            <mxPoint x="1753" y="622"/>
                        </Array>
                    </mxGeometry>
                </mxCell>
                <mxCell id="95" value="9). Update the &lt;br&gt;App version" style="text;html=1;align=center;verticalAlign=middle;resizable=0;points=[];autosize=1;" parent="1" vertex="1">
                    <mxGeometry x="1440" y="1072" width="90" height="30" as="geometry"/>
                </mxCell>
                <mxCell id="96" value="" style="endArrow=block;dashed=1;endFill=0;endSize=12;html=1;shadow=0;entryX=1;entryY=0.5;entryDx=0;entryDy=0;" parent="1" source="24" target="40" edge="1">
                    <mxGeometry width="160" relative="1" as="geometry">
                        <mxPoint x="1780" y="217" as="sourcePoint"/>
                        <mxPoint x="1310" y="1757" as="targetPoint"/>
                        <Array as="points">
                            <mxPoint x="1780" y="587"/>
                            <mxPoint x="1780" y="597"/>
                            <mxPoint x="1790" y="597"/>
                            <mxPoint x="1790" y="487"/>
                            <mxPoint x="1600" y="487"/>
                            <mxPoint x="1470" y="487"/>
                            <mxPoint x="1360" y="487"/>
                            <mxPoint x="1360" y="1687"/>
                        </Array>
                    </mxGeometry>
                </mxCell>
                <mxCell id="98" style="edgeStyle=orthogonalEdgeStyle;rounded=0;orthogonalLoop=1;jettySize=auto;html=1;entryX=0.612;entryY=0.997;entryDx=0;entryDy=0;entryPerimeter=0;shadow=0;fillColor=none;" parent="1" source="40" target="82" edge="1">
                    <mxGeometry relative="1" as="geometry">
                        <Array as="points">
                            <mxPoint x="439" y="1687"/>
                        </Array>
                    </mxGeometry>
                </mxCell>
                <mxCell id="99" value="10). Remove old version&lt;br&gt;&amp;nbsp;and pull new version into container&lt;br&gt;x ---&amp;gt; y" style="text;html=1;align=center;verticalAlign=middle;resizable=0;points=[];autosize=1;" parent="1" vertex="1">
                    <mxGeometry x="580" y="1637" width="200" height="50" as="geometry"/>
                </mxCell>
                <mxCell id="100" value="" style="endArrow=block;dashed=1;endFill=0;endSize=12;html=1;shadow=0;fillColor=none;entryX=0;entryY=0.75;entryDx=0;entryDy=0;" parent="1" target="13" edge="1">
                    <mxGeometry width="160" relative="1" as="geometry">
                        <mxPoint x="440" y="1506" as="sourcePoint"/>
                        <mxPoint x="600" y="1497" as="targetPoint"/>
                        <Array as="points">
                            <mxPoint x="440" y="1497"/>
                        </Array>
                    </mxGeometry>
                </mxCell>
                <mxCell id="102" value="11). Apply Version b" style="text;html=1;align=center;verticalAlign=middle;resizable=0;points=[];autosize=1;" parent="1" vertex="1">
                    <mxGeometry x="650" y="1477" width="120" height="20" as="geometry"/>
                </mxCell>
                <mxCell id="105" value="" style="endArrow=block;dashed=1;endFill=0;endSize=12;html=1;shadow=0;fillColor=none;exitX=0;exitY=0.5;exitDx=0;exitDy=0;entryX=-0.001;entryY=0.375;entryDx=0;entryDy=0;entryPerimeter=0;" parent="1" source="82" target="12" edge="1">
                    <mxGeometry width="160" relative="1" as="geometry">
                        <mxPoint x="370" y="1397" as="sourcePoint"/>
                        <mxPoint x="780" y="1247" as="targetPoint"/>
                        <Array as="points">
                            <mxPoint x="320" y="1247"/>
                        </Array>
                    </mxGeometry>
                </mxCell>
                <mxCell id="106" value="12). Apply schema change&amp;nbsp;" style="text;html=1;align=center;verticalAlign=middle;resizable=0;points=[];autosize=1;" parent="1" vertex="1">
                    <mxGeometry x="410" y="1777" width="160" height="20" as="geometry"/>
                </mxCell>
                <mxCell id="108" value="13). Update finished, &lt;br&gt;then send the request to&lt;br&gt;proxy pop the queue and&amp;nbsp;&lt;br&gt;stop the store requst" style="text;html=1;align=center;verticalAlign=middle;resizable=0;points=[];autosize=1;" parent="1" vertex="1">
                    <mxGeometry x="1460" y="847" width="150" height="60" as="geometry"/>
                </mxCell>
                <mxCell id="110" value="" style="endArrow=block;dashed=1;endFill=0;endSize=12;html=1;shadow=0;fillColor=none;entryX=0.2;entryY=0.015;entryDx=0;entryDy=0;entryPerimeter=0;exitX=0.048;exitY=0;exitDx=0;exitDy=0;exitPerimeter=0;" parent="1" source="24" target="6" edge="1">
                    <mxGeometry width="160" relative="1" as="geometry">
                        <mxPoint x="1840" y="237" as="sourcePoint"/>
                        <mxPoint x="890" y="957" as="targetPoint"/>
                        <Array as="points">
                            <mxPoint x="1750" y="597"/>
                            <mxPoint x="1760" y="597"/>
                            <mxPoint x="1760" y="537"/>
                            <mxPoint x="878" y="537"/>
                        </Array>
                    </mxGeometry>
                </mxCell>
                <mxCell id="116" value="" style="endArrow=block;dashed=1;endFill=0;endSize=12;html=1;shadow=0;fillColor=none;exitX=0.193;exitY=0;exitDx=0;exitDy=0;exitPerimeter=0;entryX=0;entryY=0;entryDx=0;entryDy=52.5;entryPerimeter=0;" parent="1" source="6" target="65" edge="1">
                    <mxGeometry width="160" relative="1" as="geometry">
                        <mxPoint x="860" y="997" as="sourcePoint"/>
                        <mxPoint x="1020" y="997" as="targetPoint"/>
                    </mxGeometry>
                </mxCell>
                <mxCell id="117" value="" style="endArrow=open;endFill=1;endSize=12;html=1;shadow=0;fillColor=none;exitX=0;exitY=0.615;exitDx=0;exitDy=0;exitPerimeter=0;entryX=0;entryY=0.25;entryDx=0;entryDy=0;" parent="1" source="6" target="13" edge="1">
                    <mxGeometry width="160" relative="1" as="geometry">
                        <mxPoint x="630" y="1065.8199999999997" as="sourcePoint"/>
                        <mxPoint x="680" y="1407" as="targetPoint"/>
                        <Array as="points">
                            <mxPoint x="670" y="1047"/>
                            <mxPoint x="670" y="1457"/>
                        </Array>
                    </mxGeometry>
                </mxCell>
                <mxCell id="118" value="14). Requst Pass&lt;br&gt;&amp;nbsp;to App" style="text;html=1;align=center;verticalAlign=middle;resizable=0;points=[];autosize=1;" parent="1" vertex="1">
                    <mxGeometry x="670" y="1147" width="110" height="30" as="geometry"/>
                </mxCell>
                <mxCell id="119" value="" style="endArrow=open;endFill=1;endSize=12;html=1;shadow=0;fillColor=none;entryX=0.065;entryY=-0.01;entryDx=0;entryDy=0;entryPerimeter=0;" parent="1" edge="1">
                    <mxGeometry width="160" relative="1" as="geometry">
                        <mxPoint x="821" y="497" as="sourcePoint"/>
                        <mxPoint x="820.6000000000001" y="965.6999999999998" as="targetPoint"/>
                    </mxGeometry>
                </mxCell>
                <mxCell id="120" value="New Requst" style="text;html=1;align=center;verticalAlign=middle;resizable=0;points=[];autosize=1;" parent="1" vertex="1">
                    <mxGeometry x="740" y="797" width="80" height="20" as="geometry"/>
                </mxCell>
                <mxCell id="122" value="15).&amp;nbsp; Check the Requst is put,post or delete&amp;nbsp;&lt;br&gt;then pass to Schema conventor&amp;nbsp;" style="text;html=1;align=center;verticalAlign=middle;resizable=0;points=[];autosize=1;" parent="1" vertex="1">
                    <mxGeometry x="892" y="1157" width="250" height="30" as="geometry"/>
                </mxCell>
                <mxCell id="124" value="16). Get requst directly&amp;nbsp;&lt;br&gt;pass to the App." style="text;html=1;align=center;verticalAlign=middle;resizable=0;points=[];autosize=1;" parent="1" vertex="1">
                    <mxGeometry x="1142" y="1327" width="140" height="30" as="geometry"/>
                </mxCell>
                <mxCell id="130" value="17). All the requet fetch&amp;nbsp;&lt;br&gt;in the Queue send&lt;br&gt;the requst to kuibelt throuh&lt;br&gt;the API server pull the&amp;nbsp;&lt;br&gt;Default Schema" style="text;html=1;align=center;verticalAlign=middle;resizable=0;points=[];autosize=1;" parent="1" vertex="1">
                    <mxGeometry x="1470" y="1387" width="160" height="80" as="geometry"/>
                </mxCell>
                <mxCell id="132" value="" style="endArrow=block;dashed=1;endFill=0;endSize=12;html=1;shadow=0;fillColor=none;entryX=0.383;entryY=1.042;entryDx=0;entryDy=0;entryPerimeter=0;exitX=0.557;exitY=0.008;exitDx=0;exitDy=0;exitPerimeter=0;" parent="1" source="82" target="12" edge="1">
                    <mxGeometry width="160" relative="1" as="geometry">
                        <mxPoint x="440" y="1437" as="sourcePoint"/>
                        <mxPoint x="1010" y="1367" as="targetPoint"/>
                        <Array as="points">
                            <mxPoint x="427" y="1457"/>
                            <mxPoint x="440" y="1457"/>
                            <mxPoint x="440" y="1367"/>
                            <mxPoint x="959" y="1367"/>
                        </Array>
                    </mxGeometry>
                </mxCell>
                <mxCell id="133" value="18). pull default schema" style="text;html=1;align=center;verticalAlign=middle;resizable=0;points=[];autosize=1;" parent="1" vertex="1">
                    <mxGeometry x="720" y="1347" width="140" height="20" as="geometry"/>
                </mxCell>
                <mxCell id="135" value="" style="endArrow=none;dashed=1;html=1;shadow=0;fillColor=none;exitX=0.789;exitY=0.99;exitDx=0;exitDy=0;exitPerimeter=0;entryX=0.75;entryY=1;entryDx=0;entryDy=0;" parent="1" source="40" target="40" edge="1">
                    <mxGeometry width="50" height="50" relative="1" as="geometry">
                        <mxPoint x="1130" y="1757" as="sourcePoint"/>
                        <mxPoint x="1180" y="1707" as="targetPoint"/>
                        <Array as="points">
                            <mxPoint x="1137" y="1717"/>
                            <mxPoint x="1130" y="1717"/>
                            <mxPoint x="1120" y="1717"/>
                        </Array>
                    </mxGeometry>
                </mxCell>
                <mxCell id="138" value="" style="endArrow=classic;html=1;shadow=0;fillColor=none;" parent="1" edge="1">
                    <mxGeometry width="50" height="50" relative="1" as="geometry">
                        <mxPoint x="1924.9" y="480" as="sourcePoint"/>
                        <mxPoint x="1924.9" y="587" as="targetPoint"/>
                        <Array as="points">
                            <mxPoint x="1924.9" y="560"/>
                        </Array>
                    </mxGeometry>
                </mxCell>
                <mxCell id="139" value="" style="endArrow=block;dashed=1;endFill=0;endSize=12;html=1;shadow=0;fillColor=none;entryX=0.145;entryY=0;entryDx=0;entryDy=4.35;entryPerimeter=0;" parent="1" target="51" edge="1">
                    <mxGeometry width="160" relative="1" as="geometry">
                        <mxPoint x="1924" y="588" as="sourcePoint"/>
                        <mxPoint x="2340" y="687" as="targetPoint"/>
                        <Array as="points">
                            <mxPoint x="1924" y="637"/>
                            <mxPoint x="2060" y="637"/>
                            <mxPoint x="2060" y="687"/>
                            <mxPoint x="2357" y="687"/>
                        </Array>
                    </mxGeometry>
                </mxCell>
                <mxCell id="144" value="" style="endArrow=block;dashed=1;endFill=0;endSize=12;html=1;shadow=0;fillColor=none;" parent="1" edge="1">
                    <mxGeometry width="160" relative="1" as="geometry">
                        <mxPoint x="820" y="967" as="sourcePoint"/>
                        <mxPoint x="790" y="1047" as="targetPoint"/>
                        <Array as="points">
                            <mxPoint x="820" y="1047"/>
                        </Array>
                    </mxGeometry>
                </mxCell>
                <mxCell id="146" value="" style="shape=ext;double=1;rounded=1;whiteSpace=wrap;html=1;fillColor=none;" parent="1" vertex="1">
                    <mxGeometry x="630" y="910" width="670" height="650" as="geometry"/>
                </mxCell>
                <mxCell id="147" value="" style="shape=ext;double=1;rounded=0;whiteSpace=wrap;html=1;fillColor=none;" parent="1" vertex="1">
                    <mxGeometry x="600" y="890" width="720" height="990" as="geometry"/>
                </mxCell>
                <mxCell id="152" value="Operator" style="rounded=0;whiteSpace=wrap;html=1;fillColor=none;" parent="1" vertex="1">
                    <mxGeometry x="1740" y="977" width="250" height="90" as="geometry"/>
                </mxCell>
                <mxCell id="153" value="" style="rounded=1;whiteSpace=wrap;html=1;fillColor=none;shadow=1;" parent="1" vertex="1">
                    <mxGeometry x="1690" y="927" width="342" height="220" as="geometry"/>
                </mxCell>
                <mxCell id="155" value="" style="rounded=0;whiteSpace=wrap;html=1;fillColor=none;shadow=1;" parent="1" vertex="1">
                    <mxGeometry x="1640" y="887" width="462" height="330" as="geometry"/>
                </mxCell>
                <mxCell id="156" value="" style="endArrow=none;html=1;shadow=0;fillColor=none;entryX=0.5;entryY=1;entryDx=0;entryDy=0;entryPerimeter=0;" parent="1" target="77" edge="1">
                    <mxGeometry width="50" height="50" relative="1" as="geometry">
                        <mxPoint x="990" y="1517" as="sourcePoint"/>
                        <mxPoint x="2410" y="1647" as="targetPoint"/>
                        <Array as="points">
                            <mxPoint x="990" y="1517"/>
                            <mxPoint x="990" y="1567"/>
                            <mxPoint x="990" y="1627"/>
                            <mxPoint x="2405" y="1627"/>
                            <mxPoint x="2725" y="1627"/>
                        </Array>
                    </mxGeometry>
                </mxCell>
                <mxCell id="157" value="DB Conection" style="text;html=1;align=center;verticalAlign=middle;resizable=0;points=[];autosize=1;" parent="1" vertex="1">
                    <mxGeometry x="1770" y="1607" width="90" height="20" as="geometry"/>
                </mxCell>
                <mxCell id="158" value="Node" style="text;html=1;align=center;verticalAlign=middle;resizable=0;points=[];autosize=1;" parent="1" vertex="1">
                    <mxGeometry x="1242" y="870" width="40" height="20" as="geometry"/>
                </mxCell>
                <mxCell id="159" value="Pod" style="text;html=1;align=center;verticalAlign=middle;resizable=0;points=[];autosize=1;" parent="1" vertex="1">
                    <mxGeometry x="1160" y="890" width="40" height="20" as="geometry"/>
                </mxCell>
                <mxCell id="160" value="Pod" style="text;html=1;align=center;verticalAlign=middle;resizable=0;points=[];autosize=1;" parent="1" vertex="1">
                    <mxGeometry x="1960" y="907" width="40" height="20" as="geometry"/>
                </mxCell>
                <mxCell id="161" value="Node" style="text;html=1;align=center;verticalAlign=middle;resizable=0;points=[];autosize=1;" parent="1" vertex="1">
                    <mxGeometry x="2010" y="867" width="40" height="20" as="geometry"/>
                </mxCell>
                <mxCell id="162" value="" style="rounded=0;whiteSpace=wrap;html=1;shadow=1;fillColor=none;" parent="1" vertex="1">
                    <mxGeometry x="550" y="440" width="1920" height="1610" as="geometry"/>
                </mxCell>
                <mxCell id="163" value="cluster" style="text;html=1;align=center;verticalAlign=middle;resizable=0;points=[];autosize=1;" parent="1" vertex="1">
                    <mxGeometry x="2250" y="370" width="50" height="20" as="geometry"/>
                </mxCell>
            </root>
        </mxGraphModel>
    </diagram>
</mxfile>